<svg data-name="Icon - View" xmlns="http://www.w3.org/2000/svg" width="24" height="24" viewBox="0 0 24 24">
    <path style="fill:none" d="M0 0h24v24H0z"/>
    <path d="M0-8.312a3.034 3.034 0 0 0-.854.137 1.514 1.514 0 0 1 .2.738 1.532 1.532 0 0 1-1.534 1.531 1.514 1.514 0 0 1-.738-.2 3.052 3.052 0 0 0-.119.847A3.056 3.056 0 0 0 .01-2.2a3.056 3.056 0 0 0 3.054-3.057A3.056 3.056 0 0 0 .01-8.312zm7.78 2.663A8.77 8.77 0 0 0 0-10.5a8.771 8.771 0 0 0-7.78 4.851.88.88 0 0 0-.095.4.887.887 0 0 0 .095.4A8.77 8.77 0 0 0 0 0a8.771 8.771 0 0 0 7.78-4.851.88.88 0 0 0 .095-.4.887.887 0 0 0-.095-.398zM0-1.312A7.438 7.438 0 0 1-6.506-5.25 7.438 7.438 0 0 1 0-9.187 7.438 7.438 0 0 1 6.506-5.25 7.438 7.438 0 0 1 0-1.312z" transform="translate(12 17.2)" style="fill:#778187"/>
</svg>
