<svg data-name="Icon / Edit" xmlns="http://www.w3.org/2000/svg" width="24" height="24" viewBox="0 0 24 24">
    <path style="fill:none" d="M0 0h24v24H0z"/>
    <path d="m7.414-12.242-1.172-1.172A1.994 1.994 0 0 0 4.828-14a1.994 1.994 0 0 0-1.414.586l-2.328 2.327L0-10l-7.6 7.6-.4 3.567A.75.75 0 0 0-7.252 2a.757.757 0 0 0 .084 0l3.568-.4L4-6l1.086-1.086 2.328-2.327a2 2 0 0 0 0-2.829zM-4.289.168-6.4.4l.235-2.115L1.061-8.94l.969-.969L3.909-8.03l-.969.969zM6.353-10.474 4.97-9.091 3.091-10.97l1.384-1.384a.5.5 0 0 1 .353-.147.5.5 0 0 1 .353.147l1.172 1.172a.5.5 0 0 1 0 .708z" transform="translate(12 18)" style="fill:currentColor"/>
</svg>
