<svg data-name="Icon - Search" xmlns="http://www.w3.org/2000/svg" width="40" height="40" viewBox="0 0 24 24">
    <path style="fill:none" d="M0 0h24v24H0z"/>
    <path d="m6.9.571-3.32-3.32a.325.325 0 0 0-.232-.1h-.357a5.672 5.672 0 0 0 1.384-3.713 5.687 5.687 0 0 0-5.688-5.688A5.687 5.687 0 0 0-7-6.562 5.687 5.687 0 0 0-1.313-.875a5.672 5.672 0 0 0 3.719-1.384v.359a.336.336 0 0 0 .1.232l3.32 3.32a.328.328 0 0 0 .465 0l.609-.616a.328.328 0 0 0 0-.465zm-8.213-2.758a4.374 4.374 0 0 1-4.375-4.375 4.374 4.374 0 0 1 4.375-4.375 4.374 4.374 0 0 1 4.375 4.375 4.374 4.374 0 0 1-4.375 4.375z" transform="translate(12.5 17.5)" style="fill:#778187"/>
</svg>