<?xml version="1.0" encoding="utf-8"?>
<!-- Generator: Adobe Illustrator 23.1.0, SVG Export Plug-In . SVG Version: 6.00 Build 0)  -->
<svg version="1.1" id="Layer_1" xmlns="http://www.w3.org/2000/svg" xmlns:xlink="http://www.w3.org/1999/xlink" x="0px" y="0px"
	 viewBox="0 0 935 320" style="enable-background:new 0 0 935 320;" xml:space="preserve">
<style type="text/css">
	.st0{fill:#FFFFFF;}
</style>
<g>
	<g id="g24_3_" transform="matrix(0.24999949,0,0,0.24999949,34.410408,28.61518)">
		<path id="path26_3_" class="st0" d="M555.4,795.6c0.3-1.5,0.6-5.7,0.6-7.3c0-12.2-9.8-22-22-22.2H231.9L431.2,34.8
			c0.2-1.9,0.4-4.7,0.4-6.1c0-11-8.1-19.7-18.5-21.5h-239c-15.1,0.5-27,11.2-30.5,25.4l-270.3,991l0.2,0.1c-0.3,1.2-0.7,2.4-0.7,3.7
			c0,8.7,6.8,15.7,15.4,16.4H477c5.7-1.5,10.4-5.2,13.2-10.3l65.4-237.8L555.4,795.6z"/>
	</g>
	<g id="g28_3_" transform="matrix(0.24999949,0,0,0.24999949,41.864793,44.612797)">
		<path id="path30_3_" class="st0" d="M777.1,192L777.1,192l247.4,0c7.8-1.1,13.9-6.4,16.7-13.6l57.6-210.1c0.1-1.2,0.2-2.5,0.2-3.1
			c0-11.7-9.1-21-20.5-21.9H841.7c-13.6,0-24.4,8.5-29.4,20.3l-55.7,202.7c-0.1,2-0.2,3.8-0.2,4.2C756.4,182,765.6,191.4,777.1,192"
			/>
	</g>
	<g id="g32_3_" transform="matrix(0.24999949,0,0,0.24999949,48.732004,41.674753)">
		<path id="path34_3_" class="st0" d="M981.3,302.8c0-12.3-10-22.3-22.3-22.3h-0.1l0-0.2H721.5c-13.1,1.7-23.3,10.9-27,23.4
			L510.5,973c-0.2,0.7-0.4,1.4-0.4,2.1c0,8.7,6.8,15.7,15.4,16.4l196.9,0.1l0-0.1h60.1c7.8-1.1,13.9-6.4,16.7-13.6l57.6-210.1
			c0-0.4,0-0.6,0-1l124.1-456.8l-0.2-0.1C981,308.5,981.3,304.4,981.3,302.8"/>
	</g>
	<g id="g36_1_" transform="matrix(0.24999949,0,0,0.24999949,46.379659,21.902794)">
		<path id="path38_1_" class="st0" d="M911.3,1048.9c0,11.5,8.8,20.6,20,21.8h200.8h66h125.2c63-3.2,117.2-14.6,176.3-39
			c47.8-20.2,104.6-53.8,154.7-105.8c50.2-51.5,88.9-118.9,107.8-189.5c19.6-70.1,17.3-135.5-3.6-184.3
			c-15.3-36.8-39.9-64.3-65.8-83.6c-39.6-29.2-81.1-41.5-113.9-48.2c-32.6-6.4-56.2-6.7-63.5-6.8l-99.9,0
			c-68.5,0-51-101.7,18.7-101.7l2.4,0h136.4h278.3c7.5-2,13.2-7.8,15.2-15.4l0.1,0l64.5-236c0.1-1.8,0.3-3.6,0.3-4.6
			c0-11.5-8.8-20.6-20-21.8h-206.7h-122.2h-62.8c-62.9,2.8-116.9,14.6-175.8,39c-47.8,20.2-104.6,53.9-154.7,105.8
			c-50.2,51.5-88.9,118.9-107.8,189.6c-19.6,70.1-17.3,135.5,3.6,184.2c15.3,36.8,39.8,64.4,65.7,83.6
			c39.6,29.2,81.1,41.5,113.9,48.2c32.4,6.4,56.1,6.7,63.4,6.8l97.9,0.1l3.1,0.3c28.5,2.2,45.8,27,38.2,55
			c-6.1,22.1-25.8,39.1-47.2,44.6c-4,1-8.7,1.8-14,1.8h-198.4v-0.1H991.5c-7.5,2-13.2,7.9-15.2,15.4l-0.1,0l-64.5,236
			C911.5,1046,911.3,1047.8,911.3,1048.9"/>
	</g>
	<g id="g40_1_" transform="matrix(0.24999949,0,0,0.24999949,99.968474,51.339658)">
		<path id="path42_1_" class="st0" d="M2504.6-61.9c0-11.5-8.8-20.6-20-21.8h-401.5h-167.6h-69.1c-13.6,0-24.4,8.5-29.4,20.2
			l-271.7,998.7c-0.1,0.4-0.3,0.7-0.3,1.1c0,8.8,6.9,15.8,15.5,16.5h657.2c7.5-2,13.2-7.9,15.2-15.4l0.1,0l64.5-236
			c0.1-1.8,0.3-3.6,0.3-4.6c0-11.5-8.8-20.6-20-21.8h-373.8l33.2-121.8h373.8c6.1-1.6,10.9-5.9,13.6-11.6l54.1-198.6
			c0.2-1.8,0.3-4,0.3-5.2c0-11.9-9.4-21.5-21.2-22.1h-356l33.2-121.8h389.3c7.5-2,13.2-7.8,15.2-15.4l0.1,0l64.5-236
			C2504.5-59,2504.6-60.8,2504.6-61.9"/>
	</g>
	<g id="g44_1_" transform="matrix(0.24999949,0,0,0.24999949,123.83697,51.985982)">
		<path id="path46_1_" class="st0" d="M3214.3-86.2h-337.4c-69.2,3.1-128.5,16.1-193.1,42.9c-52.4,22.2-114.7,59.2-169.4,116.3
			c-52.7,54.4-93.7,125-114.9,199.3c-0.9,3.1-86.5,320.1-87.3,323.1c-21.1,77-18.2,149,5.1,202.6c17.1,40.4,44.2,70.8,72.8,91.9
			c43.7,32.1,89.5,45.6,125.6,53c19.4,3.8,35.8,5.6,48.2,6.5l0,0.5h8.7c5.9,0.3,10.4,0.3,12.9,0.4l0.1-0.4h401.8
			c7.4-2,13.2-7.9,15.2-15.4l0.1,0l64.5-236c0.1-1.7,0.3-3.6,0.3-4.6c0-11.5-8.8-20.6-19.9-21.8h-414.2c-38.9,0-52.8-29.8-46.5-58.7
			c0.4-1.7,77.8-283.9,78.3-285.6c38.2-128.2,158.9-135.9,202.1-136.4h286.7c7.4-2,13.2-7.9,15.2-15.4l0.1,0l64.5-236
			c0.1-1.7,0.3-3.6,0.3-4.6C3234.2-75.9,3225.4-85,3214.3-86.2"/>
	</g>
</g>
</svg>
